inDegrees=no
num_controls=7
num_derivatives=13
num_iterations=113
num_multipliers=7
num_parameters=0
num_slacks=7
num_states=26
objective=5.502123
objective_accelerations=0.799755
objective_balance=0.024058
objective_effort=0.248817
objective_height=4.402574
objective_ligament=0.026920
solver_duration=1319.079590
status=Solve_Succeeded
success=true
DataType=double
version=3
OpenSimVersion=4.4-2022-07-23-0e9fedc
endheader
time	/jointset/ground_pelvis/pelvis_tilt/value	/jointset/ground_pelvis/pelvis_tx/value	/jointset/ground_pelvis/pelvis_ty/value	/jointset/hip_l/hip_flexion_l/value	/jointset/hip_l/hip_adduction_l/value	/jointset/hip_l/hip_rotation_l/value	/jointset/back/lumbar_extension/value	/jointset/patellofemoral_l/patellar_flexion_l/value	/jointset/knee_l/knee_flexion_l/value	/jointset/knee_l/knee_adduction_l/value	/jointset/knee_l/knee_rotation_l/value	/jointset/ankle_l/ankle_angle_l/value	/jointset/subtalar_l/subtalar_angle_l/value	/jointset/ground_pelvis/pelvis_tilt/speed	/jointset/ground_pelvis/pelvis_tx/speed	/jointset/ground_pelvis/pelvis_ty/speed	/jointset/hip_l/hip_flexion_l/speed	/jointset/hip_l/hip_adduction_l/speed	/jointset/hip_l/hip_rotation_l/speed	/jointset/back/lumbar_extension/speed	/jointset/patellofemoral_l/patellar_flexion_l/speed	/jointset/knee_l/knee_flexion_l/speed	/jointset/knee_l/knee_adduction_l/speed	/jointset/knee_l/knee_rotation_l/speed	/jointset/ankle_l/ankle_angle_l/speed	/jointset/subtalar_l/subtalar_angle_l/speed	/forceset/tau_hip_flexion_l	/forceset/tau_hip_adduction_l	/forceset/tau_hip_rotation_l	/forceset/tau_knee_flexion_l	/forceset/tau_ankle_angle_l	/forceset/tau_subtalar_angle_l	/forceset/tau_lumbar_extension	lambda_cid13_p0	lambda_cid13_p1	lambda_cid13_p2	lambda_cid13_p3	lambda_cid13_p4	lambda_cid13_p5	lambda_cid14_p0	/jointset/ground_pelvis/pelvis_tilt/accel	/jointset/ground_pelvis/pelvis_tx/accel	/jointset/ground_pelvis/pelvis_ty/accel	/jointset/hip_l/hip_flexion_l/accel	/jointset/hip_l/hip_adduction_l/accel	/jointset/hip_l/hip_rotation_l/accel	/jointset/back/lumbar_extension/accel	/jointset/patellofemoral_l/patellar_flexion_l/accel	/jointset/knee_l/knee_flexion_l/accel	/jointset/knee_l/knee_adduction_l/accel	/jointset/knee_l/knee_rotation_l/accel	/jointset/ankle_l/ankle_angle_l/accel	/jointset/subtalar_l/subtalar_angle_l/accel	gamma_cid13_p0	gamma_cid13_p1	gamma_cid13_p2	gamma_cid13_p3	gamma_cid13_p4	gamma_cid13_p5	gamma_cid14_p0
0.5	-0.4408087216406332	-0.07903237480267891	0.7548524122663581	1.28160766342886	-0.3645859422975781	-0.02400343529442862	-0.4141439041770254	0.7846871923471072	0.7846871923471054	-0.07906433940835494	-0.1743949348858832	0.05072268706057892	0.07062338696086359	-1.348335637432675	-0.4230264205385872	-0.5787833769620001	3.112013775109589	0.06744523427255973	0.500451121016155	-0.2625697760366865	1.51404510553057	1.514045105530608	0.2254814322976222	-0.005320768472373864	-0.1310229536655771	0.02631626962280476	-0.177576490299115	-0.01091221338513539	0.01092835213995014	-0.1555183532137288	0.1030895023120286	0.01304461471858021	0.1582705021431483	8.641512397292445	-6.075373717204229	-0.5722849523264789	-9.803042517824698	-435.8558148939644	-72.86534375982517	-11.91879850322097	0.7448290204426726	0.8307413144534949	-0.4030011766877568	-2.089366972278629	0.2618719978788164	-0.4453008633990487	1.793819530947868	-1.307084345378715	-1.307084345378744	-0.2708397158248541	0.194285237332601	-0.08621884965641124	0.2482013764841136	-1.504773476090204e-07	-9.415303505029167e-07	7.1829956048642e-07	-1.538932359319536e-07	-5.632407429053367e-07	6.044895087504111e-07	-3.25329976208927e-07
0.51	-0.4542517440158389	-0.08322046921304135	0.7490459233453223	1.312617220893076	-0.3639003635273764	-0.01902281800808276	-0.4166814450572294	0.7997597813217641	0.7997597813217022	-0.07682598183699373	-0.1744410712307532	0.04940787591330476	0.07089682828116875	-1.340088218091259	-0.4145413395684586	-0.5823753515689387	3.089466384494061	0.06963827341499935	0.4955905712744832	-0.2449523659811349	1.500256000906453	1.500256000906457	0.2221590340054081	-0.003948544298676799	-0.1319251990352992	0.02834262564410596	-0.1846360197661125	-0.01057798789163952	0.01035940976239624	-0.1565430228648247	0.1057256152578871	0.01387072528697838	0.1631905857700945	9.30971228302673	-6.381884705352769	-0.7167609634055198	-10.35992147006112	-440.0983196868384	-73.13373011192208	-11.29503869890324	0.8917466688711173	0.8650270578110516	-0.3165409449550464	-2.402178565507865	0.1932880233994649	-0.5189463050693235	1.743606846339467	-1.447265125749811	-1.447265125754921	-0.3677932025037921	0.102551085455354	-0.09015208648731395	0.1755240244154614	-1.306298853456128e-07	-9.231559764675491e-07	5.311218263892484e-07	-1.705360646200774e-07	-4.884481125518395e-07	5.847569802705287e-07	-2.969931559497138e-07
0.52	-0.46760688254205	-0.08732218569979894	0.743207665609766	1.343388353759251	-0.3631938007355611	-0.01409330907426988	-0.4190432308161859	0.8146879909291674	0.8146879909291658	-0.07462181891158853	-0.1744747133183972	0.04808445737116183	0.07118966742357954	-1.330758867634652	-0.4057508358176193	-0.5851371398661046	3.064328855505818	0.07164203859637046	0.4902294505120649	-0.2274187517863611	1.485169232089486	1.485169232089457	0.2186425030498148	-0.002821917002309473	-0.1327444326393047	0.03019583404389465	-0.1916955492333374	-0.01024376239824578	0.009790467385877038	-0.1575676925159428	0.1083617282037506	0.01469683585525969	0.1681106693968069	9.976913220221233	-6.689333011982312	-0.859817102926658	-10.92290232130568	-444.3600316807264	-73.45756022806742	-10.67434170477138	0.9612152434803021	0.891825870595639	-0.2369639147331854	-2.607394646821696	0.2240172056653112	-0.5454150675480284	1.777060358792172	-1.566617183948568	-1.566617183948555	-0.3096662485006686	0.1451658618670005	-0.0696164965130648	0.2135718521817404	-1.150323385245165e-07	-9.05439012386014e-07	3.77472161701514e-07	-1.844960715777018e-07	-4.277945291960438e-07	5.683536449822198e-07	-2.740607208329043e-07
0.53	-0.480863516492109	-0.09133462321287117	0.7373459237376834	1.373895701829552	-0.362467974582914	-0.009219982828604048	-0.42123017613303	0.8294591321192817	0.8294591321192499	-0.07245321758444825	-0.1744982617937701	0.04675331801933582	0.07150037527403118	-1.320390247352676	-0.3966990785208682	-0.5870717765392608	3.036731809074741	0.07348724985554257	0.4843782283109587	-0.2100089611285349	1.468856932977779	1.468856932977767	0.2150366936180223	-0.001915994446612586	-0.133471881768425	0.03191165706044195	-0.1987869161994985	-0.0101711196222045	0.00921046586720602	-0.1583650191755488	0.1105270885713492	0.0156127421999181	0.1729512138196607	10.49601744931475	-7.020387351368822	-0.987072364258797	-11.30262175697312	-448.5811791135444	-73.82906944910779	-10.05759742711077	1.101295394162713	0.9174505348830065	-0.1508740291302909	-2.897249724711185	0.1595143581907334	-0.6138187904102337	1.717140987416281	-1.693794814873613	-1.693794814871109	-0.392398559413107	0.0591782074335732	-0.0726137611518072	0.1455834530424876	-1.066110858311358e-07	-8.436633975154393e-07	3.372244904156643e-07	-1.816456068237809e-07	-3.855687728735981e-07	5.688843344277251e-07	-2.590511996256768e-07
0.54	-0.4940111422446263	-0.09525542317784244	0.7314690034017651	1.404114801418826	-0.3617247480632509	-0.004406937403750012	-0.4232441830296726	0.8440610986102434	0.8440610986102384	-0.07032194640532108	-0.1745135764926561	0.04541524324821044	0.07182724053997863	-1.308957228126454	-0.3874233261974261	-0.5881728326332674	3.006679159305245	0.07512211200061268	0.4781732863491031	-0.1928310677451745	1.451334292262412	1.451334292262418	0.2111764734304422	-0.001175161690435143	-0.1341315164991531	0.03342731714303387	-0.2058782831658536	-0.01009847684618894	0.008630464348841377	-0.1591623458351335	0.11269244893898	0.01652864854455531	0.1777917582422973	11.01353365247481	-7.351906458303895	-1.113405172139289	-11.68682445234761	-452.8322595984575	-74.24875002046177	-9.445857238117952	1.174095032329199	0.9366248759338233	-0.07024779890324336	-3.098515314505394	0.1819473828450629	-0.616159019697603	1.730680903898889	-1.808685504680603	-1.808685504680547	-0.3605483996581572	0.1121479019634645	-0.05605361683461229	0.1735392653907947	-1.061295628109723e-07	-7.331420413463524e-07	4.224428543829653e-07	-1.601963223038948e-07	-3.637312507157101e-07	5.881505406000036e-07	-2.528074555099017e-07
0.55	-0.5070393797031969	-0.09908245686240552	0.7255852131441236	1.434021613891536	-0.3609661145785789	0.0003426792548667157	-0.4250876703261805	0.8584820135097962	0.8584820135098319	-0.06823043965879945	-0.1745219627494801	0.04407097737318956	0.07216839573303664	-1.29652397862235	-0.3779555822117958	-0.5884461164117151	2.974300154281276	0.07657543146326146	0.4716715762510965	-0.1759310558769752	1.432661795357642	1.432661795357563	0.2071189044203363	-0.0005401514052811639	-0.1347053962125633	0.03477860363361104	-0.2127894018456616	-0.009959192036720287	0.008030308494140277	-0.1599726343028997	0.1149032243442128	0.01712146232711043	0.182413468109751	11.53145460546759	-7.544500920789367	-1.260374428648645	-12.01714763855837	-456.9722079103896	-74.39519138623724	-8.840205422096274	1.302844624388632	0.955993736160883	0.01492634123542204	-3.36511424993217	0.1227264747060017	-0.6791455848359103	1.659961680253387	-1.924515747369017	-1.924515747381784	-0.4294097028227435	0.03359955614869718	-0.0556432172228843	0.1122074423067487	-1.083540684735485e-07	-6.549019999676554e-07	4.861331576707429e-07	-1.419803871262156e-07	-3.47299856067811e-07	6.141678169176404e-07	-2.502098544793767e-07
0.5600000000000001	-0.5199383037237448	-0.1028139841918557	0.7197028490504082	1.463593132083264	-0.3601938074499372	0.005024885096495688	-0.4267640974336166	0.8727106066475537	0.8727106066475464	-0.0661797183127983	-0.1745251145106924	0.04272145508730844	0.07252232061128354	-1.283094540520742	-0.3683220551748406	-0.5878875998481012	2.939620303113724	0.07785684079515871	0.4646911229537287	-0.1594190299298607	1.412869939893127	1.412869939892962	0.2030193933647916	-0.0001282625458683329	-0.1351827986711184	0.03598125418080031	-0.2197005205256426	-0.009819907227317811	0.007430152638602208	-0.1607829227706366	0.1171139997494596	0.01771427610961092	0.187035177977021	12.04716549929321	-7.738304479005309	-1.405327886013992	-12.35457132877523	-461.154416906063	-74.59295862663018	-8.241856321296483	1.373332751829912	0.96978148619884	0.0961122695090864	-3.558684543222015	0.1475653566947191	-0.7119076595697553	1.653083719681858	-2.032557216629743	-2.032557216629746	-0.3689368087459555	0.06752361681526682	-0.03675816586351064	0.1438120767132294	-1.13825808555412e-07	-6.153995363374251e-07	5.239897881430934e-07	-1.276444711591845e-07	-3.373558144318986e-07	6.482863774097067e-07	-2.519876251511514e-07
0.5700000000000001	-0.5326982445341331	-0.1064484149005297	0.7138302151802907	1.492806725882158	-0.3594096228783086	0.009635329554349811	-0.4282774422462787	0.8867357615846013	0.8867357615845664	-0.06417050251882725	-0.1745250257482621	0.04136765932957257	0.07288745224755641	-1.268740415416197	-0.3585413596540318	-0.5864997625500518	2.902732312850401	0.07894891450974832	0.4573399993438672	-0.1433408439739389	1.391983044388124	1.391983044388203	0.1988079872578097	0.0001224722340841093	-0.1355530905880985	0.03701986206477167	-0.2263087588639638	-0.01001715238038256	0.006823208121886725	-0.1617813961233503	0.1195652285272276	0.01828410381583271	0.1913700461571065	12.64547053441889	-7.930449106602632	-1.557556548465652	-12.73379337584987	-465.2083068625608	-74.82015220392326	-7.660690405495096	1.489396057730681	0.9855987141073997	0.1809648576077665	-3.808820995258027	0.08540900865674629	-0.7555801635159406	1.571549327877256	-2.143405587913691	-2.143405587876912	-0.4497488228669482	0.000461890944088739	-0.0337009125045485	0.08013372275284313	-1.116514361316371e-07	-5.69777324136423e-07	5.106723295173075e-07	-1.172290740608335e-07	-3.129415549936793e-07	6.490410646524531e-07	-2.42585541517903e-07
0.58	-0.5453100553598942	-0.1099843616281784	0.7079756287626848	1.521640446832928	-0.358615441443573	0.01417048968575066	-0.4296327325405197	0.9005467175925025	0.9005467175924545	-0.06220390204818604	-0.1745231069412511	0.04001085341108861	0.07326221967837168	-1.253468543593086	-0.3486252589697818	-0.5842781093458213	2.863645733492262	0.07985621341694928	0.4496342576611231	-0.1278081262448229	1.370030154064001	1.370030154064328	0.1944963287031241	0.0002377463083649163	-0.13578483082065	0.03790841308928456	-0.2329169972023581	-0.0102143975334205	0.00621626360509689	-0.1627798694760529	0.1220164573050155	0.01885393152208918	0.1957049143371013	13.24216481155705	-8.126630339018851	-1.70420873151983	-13.13145082582668	-469.3016801534412	-75.10323494785497	-7.108487619579209	1.556882095542947	0.9968625188871622	0.2628754507452874	-3.998402362185108	0.1106103952168326	-0.7828312741464845	1.543990074320648	-2.245756180453579	-2.245756180452783	-0.3889872982867814	0.04043147568063351	-0.009047828977688457	0.1138007048214285	-9.951933579354271e-08	-5.161852068199979e-07	4.307095455544171e-07	-1.119194689775076e-07	-2.696823607431545e-07	6.063451262681801e-07	-2.186236476269508e-07
0.59	-0.5577648981055108	-0.113420621971925	0.7021473705129615	1.550072894834955	-0.3578128266928151	0.01862686446243869	-0.4308354500984811	0.9141329409965081	0.9141329409965306	-0.0602803537164567	-0.174520387991852	0.0386524118778673	0.07364541932606639	-1.237360183362037	-0.3386170751545584	-0.5812377354041809	2.822505580903288	0.0806405002505015	0.4415892918270389	-0.1128505063062725	1.347042644117352	1.347042644117632	0.1902062058607381	0.0002947741307623613	-0.1358863600955094	0.03870974078757971	-0.2393142854090782	-0.01038604338367159	0.005602054626782167	-0.1636036568660023	0.1241174779078773	0.01922567928549525	0.1997824911388101	13.72297558706627	-8.230504973907973	-1.849574455322457	-13.34137484147434	-473.1610233582471	-75.18479496430282	-6.585207535293212	1.658755409770714	1.00423474521425	0.3449402773733403	-4.222599816606014	0.05845459442246619	-0.8232001422121115	1.454379809781967	-2.350989877962788	-2.350989877970286	-0.4502139589275259	-0.01324428941637541	-0.008160348340638918	0.06006458266249807	-1.049409757327844e-07	-3.594690872585938e-07	6.560652559351051e-07	-6.025748335868728e-08	-2.634332119416811e-07	6.444800152517451e-07	-2.17819010002189e-07
